<svg id="svg" version="1.1" xmlns="http://www.w3.org/2000/svg" xmlns:xlink="http://www.w3.org/1999/xlink" width="400" height="400" viewBox="0, 0, 400,400"><g id="svgg"><path id="path0" d="M220.938 198.012 L 220.938 249.730 221.641 249.522 C 229.334 247.249,240.488 238.870,246.406 230.917 C 267.929 201.998,256.302 160.548,222.891 147.081 L 220.938 146.294 220.938 198.012 " stroke="none" fill="#e40414" fill-rule="evenodd"></path><path id="path1" d="M180.781 147.605 C 141.204 164.427,135.904 218.997,171.480 243.364 C 175.441 246.077,183.459 250.083,183.948 249.593 C 184.012 249.530,184.029 226.257,183.985 197.877 L 183.906 146.277 180.781 147.605 " stroke="none" fill="#042494" fill-rule="evenodd"></path><path id="path2" d="M157.788 125.481 C 142.205 128.329,130.369 139.409,125.995 155.244 L 125.156 158.281 125.156 200.000 L 125.156 241.719 125.995 244.756 C 130.139 259.757,140.243 269.861,155.244 274.005 L 158.281 274.844 200.000 274.844 L 241.719 274.844 244.756 274.005 C 259.757 269.861,269.868 259.750,274.003 244.756 L 274.841 241.719 274.929 201.278 C 275.024 157.218,275.070 158.555,273.255 152.770 C 269.090 139.496,258.864 129.907,244.688 125.981 L 241.719 125.159 200.938 125.103 C 167.361 125.058,159.738 125.125,157.788 125.481 M184.298 198.047 C 184.219 249.646,184.216 249.843,183.594 249.745 C 182.493 249.572,177.114 247.060,174.446 245.473 C 140.470 225.262,138.201 176.192,170.188 153.398 C 174.527 150.306,182.157 146.317,183.829 146.267 C 184.349 146.251,184.373 148.856,184.298 198.047 M224.531 147.562 C 263.198 164.375,269.087 217.351,235.077 242.434 C 230.898 245.516,221.678 250.301,220.875 249.805 C 220.737 249.720,220.625 226.370,220.625 197.916 L 220.625 146.182 221.484 146.397 C 221.957 146.515,223.328 147.039,224.531 147.562 " stroke="none" fill="#eeeeee" fill-rule="evenodd"></path><path id="path3" d="M184.062 198.031 C 183.977 226.597,184.012 249.863,184.142 249.733 C 184.271 249.604,184.341 226.232,184.298 197.796 L 184.219 146.094 184.062 198.031 M163.431 159.297 L 160.469 162.344 163.516 159.381 C 165.191 157.752,166.563 156.381,166.563 156.334 C 166.563 156.108,166.183 156.467,163.431 159.297 M147.579 193.281 C 147.582 193.969,147.646 194.213,147.721 193.824 C 147.796 193.436,147.793 192.873,147.715 192.574 C 147.636 192.276,147.575 192.594,147.579 193.281 M147.573 202.813 C 147.573 203.414,147.637 203.660,147.715 203.359 C 147.794 203.059,147.794 202.566,147.715 202.266 C 147.637 201.965,147.573 202.211,147.573 202.813 M163.438 237.031 C 164.371 237.977,165.205 238.750,165.291 238.750 C 165.377 238.750,164.684 237.977,163.750 237.031 C 162.816 236.086,161.982 235.313,161.896 235.313 C 161.810 235.313,162.504 236.086,163.438 237.031 " stroke="none" fill="#8f9ec8" fill-rule="evenodd"></path><path id="path4" d="M220.701 197.872 C 220.659 226.350,220.730 249.716,220.859 249.795 C 221.071 249.926,221.070 214.638,220.857 164.844 C 220.812 154.531,220.742 169.394,220.701 197.872 M225.651 148.243 C 225.971 148.532,228.438 149.684,228.438 149.544 C 228.438 149.366,226.079 148.125,225.742 148.125 C 225.620 148.125,225.579 148.178,225.651 148.243 M239.063 156.961 C 239.063 157.008,240.152 158.098,241.484 159.383 L 243.906 161.719 241.570 159.297 C 239.401 157.047,239.063 156.732,239.063 156.961 M257.277 194.531 C 257.279 195.391,257.340 195.705,257.412 195.230 C 257.484 194.755,257.482 194.052,257.407 193.668 C 257.333 193.283,257.275 193.672,257.277 194.531 M257.277 201.719 C 257.279 202.578,257.340 202.893,257.412 202.418 C 257.484 201.943,257.482 201.239,257.407 200.855 C 257.333 200.471,257.275 200.859,257.277 201.719 M250.781 224.063 C 250.515 224.578,250.367 225.000,250.453 225.000 C 250.539 225.000,250.827 224.578,251.094 224.063 C 251.360 223.547,251.508 223.125,251.422 223.125 C 251.336 223.125,251.048 223.547,250.781 224.063 M243.421 234.609 L 242.344 235.781 243.516 234.704 C 244.606 233.702,244.831 233.438,244.593 233.438 C 244.540 233.438,244.013 233.965,243.421 234.609 M238.733 239.297 L 237.656 240.469 238.828 239.392 C 239.919 238.389,240.144 238.125,239.905 238.125 C 239.853 238.125,239.325 238.652,238.733 239.297 M233.594 243.309 L 232.656 244.114 233.672 243.442 C 234.230 243.072,234.688 242.709,234.688 242.635 C 234.688 242.401,234.555 242.483,233.594 243.309 M226.875 247.188 C 226.273 247.517,225.894 247.792,226.031 247.799 C 226.362 247.817,228.125 246.900,228.125 246.711 C 228.125 246.506,228.107 246.513,226.875 247.188 " stroke="none" fill="#ec747c" fill-rule="evenodd"></path></g></svg>