<?xml version="1.0" standalone="no"?>
<!DOCTYPE svg PUBLIC "-//W3C//DTD SVG 20010904//EN"
 "http://www.w3.org/TR/2001/REC-SVG-20010904/DTD/svg10.dtd">
<svg version="1.0" xmlns="http://www.w3.org/2000/svg"
 width="1280.000000pt" height="1280.000000pt" viewBox="0 0 1280.000000 1280.000000"
 preserveAspectRatio="xMidYMid meet">

<g transform="translate(0.000000,1280.000000) scale(0.100000,-0.100000)"
fill="#000000" stroke="none">
<path d="M5483 7379 c-30 -15 -48 -33 -62 -63 -21 -42 -21 -56 -21 -916 0
-862 0 -874 21 -916 15 -31 32 -48 63 -63 42 -21 54 -21 916 -21 862 0 874 0
916 21 31 15 48 32 63 63 21 42 21 54 21 916 0 862 0 874 -21 916 -15 31 -32
48 -63 63 -42 21 -54 21 -917 21 -865 0 -874 0 -916 -21z m947 -1629 c0 -109
-2 -130 -15 -130 -13 0 -15 21 -15 130 0 109 2 130 15 130 13 0 15 -21 15
-130z m-280 105 c0 -8 -7 -15 -15 -15 -8 0 -15 7 -15 15 0 8 7 15 15 15 8 0
15 -7 15 -15z m363 0 c1 -5 -6 -11 -15 -13 -11 -2 -18 3 -18 13 0 17 30 18 33
0z m-845 -61 c12 -8 22 -22 22 -30 0 -19 -26 -18 -34 1 -7 20 -62 20 -69 0 -7
-17 3 -24 58 -45 32 -13 41 -21 43 -45 5 -36 -19 -55 -67 -55 -36 0 -71 23
-71 47 0 7 7 13 15 13 8 0 15 -4 15 -10 0 -15 39 -32 60 -25 36 11 24 43 -20
55 -76 21 -92 65 -35 98 28 16 57 15 83 -4z m205 -15 c24 -30 23 -99 -4 -133
-16 -20 -29 -26 -59 -26 -30 0 -43 6 -59 26 -23 29 -28 92 -10 125 23 43 99
47 132 8z m181 10 c27 -21 35 -49 13 -49 -7 0 -18 9 -25 20 -16 26 -58 26 -72
1 -17 -33 -12 -86 10 -106 17 -15 24 -16 45 -7 14 6 25 16 25 22 0 5 7 10 15
10 21 0 19 -16 -5 -40 -27 -27 -77 -26 -107 2 -18 17 -23 32 -23 70 0 84 64
124 124 77z m263 6 c18 -13 22 -27 25 -94 l3 -78 -60 -1 c-68 -1 -85 9 -85 49
0 35 32 59 78 59 29 0 33 3 30 23 -2 17 -11 23 -36 25 -22 2 -34 -2 -38 -12
-3 -9 -12 -16 -20 -16 -26 0 -13 29 21 48 28 16 57 15 82 -3z m361 -1 c12 -8
22 -22 22 -30 0 -19 -26 -18 -34 1 -7 20 -62 20 -69 0 -7 -17 3 -24 58 -45 32
-13 41 -21 43 -45 5 -36 -19 -55 -67 -55 -36 0 -71 23 -71 47 0 7 7 13 15 13
8 0 15 -4 15 -10 0 -15 39 -32 60 -25 36 11 24 43 -20 55 -76 21 -92 65 -35
98 28 16 57 15 83 -4z m187 2 c16 -11 23 -11 47 3 25 14 30 15 55 1 27 -15 28
-20 31 -98 2 -67 0 -82 -12 -82 -12 0 -16 17 -18 78 -3 72 -5 77 -26 80 -40 6
-52 -14 -52 -89 0 -55 -3 -69 -15 -69 -12 0 -15 14 -15 69 0 75 -12 95 -52 89
-21 -3 -23 -8 -26 -80 -3 -70 -5 -78 -22 -78 -18 0 -20 7 -20 91 0 90 0 91 23
86 12 -4 29 -2 37 3 21 14 43 12 65 -4z m304 -3 c12 -10 24 -35 28 -55 l6 -38
-62 0 c-67 0 -78 -12 -40 -45 17 -16 24 -17 51 -7 36 13 46 9 28 -13 -14 -17
-72 -20 -100 -5 -10 5 -24 26 -30 45 -29 88 54 170 119 118z m-1019 -83 c0
-73 -3 -90 -15 -90 -12 0 -15 17 -15 90 0 73 3 90 15 90 12 0 15 -17 15 -90z
m360 0 c0 -73 -3 -90 -15 -90 -12 0 -15 17 -15 90 0 73 3 90 15 90 12 0 15
-17 15 -90z"/>
<path d="M5770 5761 c-26 -49 -1 -121 42 -121 24 0 48 34 48 69 0 48 -16 71
-50 71 -19 0 -33 -7 -40 -19z"/>
<path d="M6243 5703 c-19 -7 -16 -41 5 -51 27 -15 62 3 62 33 0 21 -5 25 -27
24 -16 0 -34 -3 -40 -6z"/>
<path d="M7092 5768 c-25 -25 -13 -38 33 -38 49 0 50 1 35 31 -12 21 -50 25
-68 7z"/>
</g>
</svg>
